<svg version="1.1" id="Layer_1" xmlns="http://www.w3.org/2000/svg" xmlns:xlink="http://www.w3.org/1999/xlink" x="0px" y="0px"
	 width="100%" viewBox="0 0 1437 533" enable-background="new 0 0 1437 533" xml:space="preserve">
<path fill="#FEFFFF" opacity="1.000000" stroke="none" 
	d="
M1096.000000,534.000000 
	C730.712891,534.000000 365.925751,534.000000 1.069315,534.000000 
	C1.069315,356.402069 1.069315,178.804108 1.069315,1.103070 
	C480.000000,1.103070 959.000000,1.103070 1437.977783,1.103070 
	C1437.977783,178.741196 1437.977783,356.370605 1437.977783,534.000000 
	C1324.137085,534.000000 1210.318604,534.000000 1096.000000,534.000000 
M514.280151,248.430267 
	C510.790100,242.289413 507.300079,236.148560 504.228119,230.743271 
	C506.867523,224.494705 510.788330,218.499191 511.892426,212.023453 
	C516.394775,185.616486 519.425171,158.952713 524.171082,132.594803 
	C528.591187,108.046104 512.358765,85.403992 486.641205,82.282257 
	C450.465149,77.890991 414.466553,72.031136 378.399872,66.746315 
	C331.629669,59.893135 284.869476,52.971897 238.100601,46.109531 
	C192.978226,39.488747 147.752701,33.498104 102.760941,26.086687 
	C75.163628,21.540627 54.018944,36.260952 50.378464,60.788879 
	C46.248886,88.612198 42.172531,116.448509 38.577747,144.344223 
	C36.344597,161.673553 50.772682,181.785141 68.069077,184.931656 
	C89.670197,188.861221 111.464928,191.736023 133.190247,194.970978 
	C159.821945,198.936478 186.462891,202.841049 213.110184,206.700516 
	C232.647095,209.530121 252.204437,212.218506 271.745300,215.021317 
	C281.635468,216.439911 291.509308,217.972519 301.390564,219.453583 
	C299.374115,220.450394 297.420624,220.452652 295.467102,220.450073 
	C224.303131,220.356201 153.139160,220.231979 81.975189,220.234436 
	C77.194962,220.234604 72.222916,220.520172 67.667755,221.820663 
	C47.955761,227.448593 37.013954,242.679398 37.007351,263.930786 
	C36.984512,337.428131 36.984180,410.925476 37.006237,484.422821 
	C37.014137,510.741882 54.166759,528.133972 80.350769,528.143250 
	C211.346008,528.189636 342.341278,528.177856 473.336517,528.105164 
	C477.624390,528.102783 482.080780,527.817627 486.170258,526.652283 
	C504.231049,521.505310 516.352295,505.309448 516.275330,485.030701 
	C515.994629,411.034454 516.193115,337.036438 516.093689,263.039246 
	C516.087463,258.425323 515.074097,253.812790 514.280151,248.430267 
M1055.351440,379.224701 
	C1055.395508,380.388885 1055.408569,381.555176 1055.488892,382.716888 
	C1056.011108,390.278442 1057.875000,392.224762 1065.433228,393.136597 
	C1066.424438,393.256165 1067.416504,393.370117 1068.406372,393.500793 
	C1084.185303,395.583496 1088.226685,392.681793 1088.913330,376.889832 
	C1089.672363,359.430573 1089.581421,341.934052 1089.831665,324.453339 
	C1089.892944,320.171692 1089.840698,315.888428 1089.840698,311.393005 
	C1100.612915,311.393005 1110.720215,311.393005 1121.254395,311.393005 
	C1121.447876,312.843323 1121.776855,314.279999 1121.807373,315.722992 
	C1121.923584,321.218109 1121.971191,326.715118 1121.993530,332.211670 
	C1122.061646,349.038544 1122.047729,365.866028 1122.185059,382.692261 
	C1122.251587,390.852295 1125.294067,393.800232 1133.474487,393.803650 
	C1136.459961,393.804901 1139.448364,393.418610 1142.430542,393.153503 
	C1149.703369,392.506927 1151.374268,391.473816 1151.645386,384.112854 
	C1152.509399,360.661743 1153.086182,337.195374 1153.394287,313.729889 
	C1153.671875,292.591370 1153.401245,271.446167 1153.463745,250.304199 
	C1153.505615,236.148544 1153.777588,221.993454 1153.798218,207.837891 
	C1153.805176,203.084747 1151.692139,199.896698 1146.411133,199.662003 
	C1141.924683,199.462601 1137.447510,198.949753 1132.961182,198.874222 
	C1125.140869,198.742569 1123.455078,200.607300 1123.463013,208.586182 
	C1123.483765,229.230164 1123.468140,249.874191 1123.467163,270.518188 
	C1123.466797,276.610107 1123.467041,282.702026 1123.467041,288.809692 
	C1113.289062,288.809692 1104.482788,288.669617 1095.684204,288.866425 
	C1091.003296,288.971100 1089.777710,286.957611 1090.112671,282.564728 
	C1091.428345,265.310944 1092.599365,248.044510 1093.624634,230.770935 
	C1094.096313,222.823730 1094.308838,214.847717 1094.249023,206.887695 
	C1094.215576,202.426056 1091.413940,199.856659 1086.921875,199.629684 
	C1081.438599,199.352631 1075.943970,199.218842 1070.453369,199.186676 
	C1063.663452,199.146896 1062.286499,200.388092 1061.912354,207.236603 
	C1060.523560,232.650879 1058.941284,258.059265 1057.969238,283.490448 
	C1056.761597,315.080933 1056.087891,346.691864 1055.351440,379.224701 
M803.315979,232.682983 
	C803.869019,281.950470 804.378296,331.218506 805.016113,380.484894 
	C805.128601,389.168884 807.017944,392.145905 815.419434,392.855011 
	C829.127747,394.011993 842.996338,394.763580 856.708862,394.031250 
	C877.690491,392.910675 886.128601,385.042328 889.430115,364.559479 
	C892.710754,344.206696 896.422119,323.794128 897.632996,303.271362 
	C898.993164,280.217926 897.723389,257.008545 893.775452,234.108582 
	C890.596497,215.669205 875.773865,200.521835 857.190308,197.973038 
	C842.877014,196.009949 828.391907,195.211212 813.959961,194.242035 
	C807.627258,193.816772 805.610535,195.928925 805.164551,202.343170 
	C804.483765,212.132736 803.995056,221.935669 803.315979,232.682983 
M641.609009,285.852997 
	C639.023438,269.435394 636.240662,253.045609 633.920837,236.590546 
	C632.343628,225.402969 631.524597,214.109604 630.053345,202.904648 
	C629.876587,201.558258 627.868652,199.616882 626.484436,199.402206 
	C618.465332,198.158615 610.378845,197.350067 601.464966,196.293533 
	C601.002686,200.781082 599.904419,205.060928 600.247437,209.221954 
	C601.696045,226.793686 602.780029,244.451889 605.450745,261.855408 
	C612.214111,305.927521 623.041992,349.150085 634.204651,392.279816 
	C634.908569,394.999725 636.255188,396.070282 639.022705,396.123016 
	C650.327698,396.338379 661.630188,396.688568 672.932922,397.013214 
	C677.046448,397.131378 678.935547,394.796356 679.661194,391.091949 
	C682.441467,376.899780 685.451599,362.748291 687.966064,348.509216 
	C694.326416,312.492126 700.537048,276.448151 706.650208,240.388214 
	C708.623047,228.751389 710.209778,217.045349 711.771118,205.344009 
	C712.594788,199.171295 711.229736,197.081970 706.301208,196.970245 
	C697.336853,196.767029 688.364563,196.912567 678.726868,196.912567 
	C678.027100,199.790085 676.840454,203.425812 676.283508,207.155594 
	C671.444092,239.560745 666.929077,272.016083 661.832153,304.380066 
	C660.247620,314.441742 657.177368,324.269409 654.787231,334.204224 
	C654.079468,334.162170 653.371643,334.120148 652.663879,334.078094 
	C649.042786,318.279327 645.421692,302.480591 641.609009,285.852997 
M984.450562,194.860382 
	C960.593506,188.996552 935.630981,203.769501 931.333069,227.087204 
	C929.079102,239.315613 927.297363,251.864120 927.422363,264.246674 
	C927.643677,286.175323 929.668152,308.079926 930.578369,330.009521 
	C931.171814,344.306824 934.132202,358.058868 939.020020,371.396301 
	C946.353760,391.407959 963.953430,400.000549 984.175964,393.797516 
	C1001.075500,388.613831 1013.706116,378.600037 1017.585571,360.805206 
	C1019.934937,350.028687 1020.153198,338.772125 1021.088074,327.710876 
	C1021.415283,323.838531 1019.069153,321.968231 1015.197144,321.992157 
	C1010.369690,322.022003 1005.537415,321.863831 1000.715332,322.026917 
	C991.532654,322.337555 991.272644,323.392395 989.799988,332.466248 
	C988.404053,341.067200 985.747864,349.505188 983.108826,357.844879 
	C981.832520,361.878235 978.965149,365.322174 974.117737,365.327087 
	C969.324524,365.331940 966.580933,361.984192 964.882568,358.025116 
	C963.261353,354.246063 961.552429,350.299469 961.046021,346.279816 
	C957.050964,314.571564 957.495911,282.877441 962.364380,251.288315 
	C963.656921,242.901794 965.275513,234.515762 971.902954,228.219498 
	C975.785522,224.530991 980.122437,224.410095 984.886780,225.898621 
	C989.439697,227.321121 991.585571,230.546982 992.089905,235.075607 
	C992.771423,241.194687 993.647949,247.305969 993.974365,253.445389 
	C994.166321,257.056091 995.559448,258.936157 999.048523,259.495697 
	C1004.782532,260.415253 1010.473694,261.815491 1016.240906,262.258728 
	C1022.955139,262.774750 1027.079102,258.654877 1025.694580,252.057404 
	C1023.525635,241.722351 1021.088135,231.287552 1017.208984,221.512222 
	C1013.470520,212.091095 1007.819275,203.398376 997.400085,199.520432 
	C993.355896,198.015259 989.311646,196.510117 984.450562,194.860382 
M1247.146851,330.502502 
	C1246.430908,347.133698 1245.612061,363.761383 1245.043457,380.397614 
	C1244.765381,388.533295 1246.182129,390.511627 1254.120850,392.043671 
	C1273.088501,395.703918 1292.232544,395.186554 1311.314453,393.219177 
	C1319.010498,392.425659 1321.485962,388.000763 1320.955688,378.593719 
	C1320.579834,371.924957 1317.993652,369.451050 1310.053101,369.225952 
	C1299.728638,368.933289 1289.392456,369.054230 1279.061401,369.000000 
	C1277.488770,368.991730 1275.916138,368.998840 1273.532471,368.998840 
	C1273.532471,359.717072 1273.456421,351.235657 1273.545288,342.755951 
	C1274.007446,298.617065 1274.545288,254.478882 1274.923340,210.339294 
	C1274.947998,207.450577 1274.353516,204.334427 1273.189941,201.703049 
	C1270.629272,195.911835 1264.465576,193.682434 1256.473389,195.066101 
	C1250.498657,196.100479 1249.225952,197.708939 1248.411743,205.580780 
	C1248.155029,208.061554 1248.033325,210.565536 1248.013916,213.060165 
	C1247.712646,251.874054 1247.438354,290.688141 1247.146851,330.502502 
M1414.818237,393.599915 
	C1424.193237,391.805420 1426.919434,387.809845 1425.901123,377.643402 
	C1425.442749,373.067596 1423.335327,369.924774 1418.567993,369.715088 
	C1409.099976,369.298645 1399.617554,369.195923 1390.140137,369.010284 
	C1386.557007,368.940063 1382.971313,368.998871 1378.532471,368.998871 
	C1378.532471,359.797699 1378.457275,351.329102 1378.545044,342.862213 
	C1379.007568,298.258636 1379.544556,253.655807 1379.972412,209.051910 
	C1380.055786,200.345825 1375.014282,195.140625 1366.689331,194.833160 
	C1356.495483,194.456635 1353.931763,196.820816 1353.196411,207.320770 
	C1353.080078,208.980591 1353.022705,210.647034 1353.007202,212.311066 
	C1352.819702,232.452667 1352.814575,252.597626 1352.430542,272.735382 
	C1351.738892,308.999817 1350.796265,345.259369 1350.022583,381.522339 
	C1349.883545,388.039490 1351.562744,390.169769 1357.766724,391.831543 
	C1360.003906,392.430756 1362.329346,392.991486 1364.624756,393.035248 
	C1381.063965,393.348877 1397.505859,393.524628 1414.818237,393.599915 
M773.531738,359.675659 
	C772.526367,316.937897 771.560059,274.199188 770.483154,231.463226 
	C770.265564,222.825989 769.675354,214.196594 769.165833,205.568954 
	C768.926758,201.521103 766.624390,199.544296 762.575500,199.859009 
	C758.270081,200.193680 753.957336,200.537048 749.681274,201.121872 
	C742.631531,202.086044 741.562622,203.214111 741.496826,210.414932 
	C741.219360,240.767242 740.978638,271.120239 740.853821,301.473511 
	C740.751770,326.281006 740.798340,351.089355 740.847168,375.897186 
	C740.872986,388.979736 740.113586,389.543060 755.753662,392.055695 
	C756.406677,392.160614 757.080811,392.149261 757.745728,392.162659 
	C767.606262,392.361877 773.707825,386.546875 773.832214,376.605499 
	C773.898682,371.286102 773.642273,365.962646 773.531738,359.675659 
M1214.840210,327.517822 
	C1214.070312,295.927063 1213.346191,264.335114 1212.501465,232.746368 
	C1212.261597,223.775864 1211.717041,214.812180 1211.220703,205.850433 
	C1210.985840,201.609299 1208.653076,199.490005 1204.347656,199.852188 
	C1200.210083,200.200256 1196.065674,200.536316 1191.952148,201.086166 
	C1184.597412,202.069229 1183.572876,203.088211 1183.500854,210.639389 
	C1183.209839,241.156769 1182.978882,271.675079 1182.853760,302.193573 
	C1182.752197,326.998322 1182.829224,351.803864 1182.834717,376.609039 
	C1182.837524,388.971802 1183.277954,389.491608 1195.475586,391.792328 
	C1208.186035,394.189850 1215.948486,387.869598 1215.802612,374.899933 
	C1215.628662,359.436096 1215.173340,343.975464 1214.840210,327.517822 
z"/>
<path fill="#019194" opacity="1.000000" stroke="none" 
	d="
M514.404724,248.814941 
	C515.074097,253.812790 516.087463,258.425323 516.093689,263.039246 
	C516.193115,337.036438 515.994629,411.034454 516.275330,485.030701 
	C516.352295,505.309448 504.231049,521.505310 486.170258,526.652283 
	C482.080780,527.817627 477.624390,528.102783 473.336517,528.105164 
	C342.341278,528.177856 211.346008,528.189636 80.350769,528.143250 
	C54.166759,528.133972 37.014137,510.741882 37.006237,484.422821 
	C36.984180,410.925476 36.984512,337.428131 37.007351,263.930786 
	C37.013954,242.679398 47.955761,227.448593 67.667755,221.820663 
	C72.222916,220.520172 77.194962,220.234604 81.975189,220.234436 
	C153.139160,220.231979 224.303131,220.356201 295.467102,220.450073 
	C297.420624,220.452652 299.374115,220.450394 301.390564,219.453583 
	C291.509308,217.972519 281.635468,216.439911 271.745300,215.021317 
	C252.204437,212.218506 232.647095,209.530121 213.110184,206.700516 
	C186.462891,202.841049 159.821945,198.936478 133.190247,194.970978 
	C111.464928,191.736023 89.670197,188.861221 68.069077,184.931656 
	C50.772682,181.785141 36.344597,161.673553 38.577747,144.344223 
	C42.172531,116.448509 46.248886,88.612198 50.378464,60.788879 
	C54.018944,36.260952 75.163628,21.540627 102.760941,26.086687 
	C147.752701,33.498104 192.978226,39.488747 238.100601,46.109531 
	C284.869476,52.971897 331.629669,59.893135 378.399872,66.746315 
	C414.466553,72.031136 450.465149,77.890991 486.641205,82.282257 
	C512.358765,85.403992 528.591187,108.046104 524.171082,132.594803 
	C519.425171,158.952713 516.394775,185.616486 511.892426,212.023453 
	C510.788330,218.499191 506.867523,224.494705 504.228119,230.743271 
	C507.300079,236.148560 510.790100,242.289413 514.404724,248.814941 
M235.945221,168.572525 
	C236.186493,168.511673 236.427750,168.450821 236.669022,168.389969 
	C236.477020,168.230148 236.285019,168.070312 236.161377,167.160904 
	C224.160614,139.759628 212.197708,112.341537 200.050659,85.005272 
	C199.423538,83.593987 197.327728,82.198204 195.736328,81.951248 
	C180.118912,79.527657 164.467758,77.318665 148.816574,75.117111 
	C142.629868,74.246864 136.419006,73.548386 129.443451,72.674522 
	C142.199249,101.727730 154.596985,129.965363 167.237442,158.755829 
	C170.447174,159.221207 174.726395,159.873703 179.014908,160.457901 
	C197.951172,163.037552 216.890121,165.597519 235.945221,168.572525 
M256.500000,487.024139 
	C328.911377,487.024139 401.322754,487.024139 473.785034,487.024139 
	C473.785034,441.950745 473.785034,398.088257 473.785034,354.424133 
	C341.724121,354.424133 210.037506,354.424133 78.884537,354.424133 
	C78.884537,398.947052 78.884537,443.045502 78.884537,487.025635 
	C138.226135,487.025635 196.863068,487.025635 256.500000,487.024139 
M240.247650,124.217300 
	C247.227051,139.994247 254.206451,155.771179 261.508698,172.277954 
	C283.835205,175.398911 307.251343,178.672180 331.296936,182.033432 
	C318.680237,153.635788 306.457764,125.974045 293.979492,98.428177 
	C293.255737,96.830421 290.563995,95.503395 288.604340,95.186409 
	C275.301910,93.034569 261.954651,91.155853 248.612457,89.255035 
	C240.458359,88.093361 232.287460,87.049370 223.337997,85.846893 
	C229.108200,98.919250 234.536316,111.216614 240.247650,124.217300 
M380.262085,189.142822 
	C394.976807,191.225143 409.691528,193.307449 424.598907,195.417023 
	C424.471710,194.342911 424.509949,193.987320 424.384644,193.704132 
	C412.293427,166.377975 400.221802,139.042938 387.988281,111.780563 
	C387.404144,110.478790 385.480560,109.194832 384.013031,108.962616 
	C368.750153,106.547630 353.458191,104.313126 338.162598,102.109596 
	C331.577667,101.160950 324.965485,100.401573 317.655884,99.465294 
	C330.494019,128.652740 342.912872,156.886917 355.589020,185.706070 
	C362.942108,186.736023 371.162598,187.887451 380.262085,189.142822 
M318.252136,261.443970 
	C298.434143,261.443970 278.615967,261.489502 258.798431,261.391754 
	C256.035614,261.378143 254.291824,262.060547 252.738464,264.565521 
	C239.322098,286.201202 225.740952,307.734680 212.232666,329.313477 
	C211.584167,330.349426 211.158096,331.524658 210.376648,333.162842 
	C233.537155,333.162842 255.998108,333.194763 278.458130,333.067291 
	C279.566498,333.061005 281.057404,331.912323 281.713684,330.878784 
	C295.451324,309.243439 309.097443,287.549957 322.747711,265.859192 
	C323.587280,264.525116 324.312439,263.119049 325.262268,261.444244 
	C322.810913,261.444244 320.985291,261.444244 318.252136,261.443970 
M327.500122,333.163330 
	C342.331146,333.163300 357.162872,333.229553 371.992218,333.070740 
	C373.653595,333.052948 376.048218,332.235413 376.844055,330.986603 
	C390.267578,309.922791 403.493225,288.732849 416.755890,267.566620 
	C417.962402,265.641174 419.122742,263.686737 420.660461,261.161072 
	C418.662201,261.161072 417.386810,261.161072 416.111420,261.161072 
	C395.614624,261.161072 375.117126,261.247406 354.621826,261.072906 
	C351.348053,261.045044 349.611267,262.100769 347.919586,264.826172 
	C334.661560,286.186249 321.229187,307.438080 307.867493,328.733887 
	C307.111481,329.938812 306.504395,331.237152 305.466034,333.163361 
	C312.957214,333.163361 319.728699,333.163361 327.500122,333.163330 
M181.214203,333.160980 
	C182.896851,332.568146 185.386383,332.490448 186.142517,331.306091 
	C200.021317,309.567108 213.696350,287.697968 227.396088,265.844849 
	C228.062973,264.781067 228.561249,263.611572 229.147186,262.473541 
	C228.535797,262.175079 228.262039,261.924377 227.988403,261.924530 
	C206.009369,261.937073 184.029510,261.896637 162.053055,262.149963 
	C160.450546,262.168427 158.353607,263.994080 157.362686,265.540833 
	C145.965591,283.330902 134.735947,301.228271 123.466949,319.100372 
	C120.662994,323.547363 117.877747,328.006165 114.643799,333.161041 
	C137.100723,333.161041 158.687698,333.161041 181.214203,333.160980 
M460.744263,119.819374 
	C444.596954,117.492867 428.449646,115.166359 412.269409,112.835106 
	C412.192627,113.732079 412.114990,113.925270 412.173126,114.059723 
	C424.228943,141.942291 436.288116,169.823395 448.398621,197.682175 
	C448.670746,198.308228 449.475616,199.016434 450.121399,199.118057 
	C457.124084,200.220093 464.144653,201.208252 471.517670,202.279373 
	C475.395416,175.594498 479.183777,149.524872 483.035065,123.022217 
	C475.686981,121.963509 468.654114,120.950218 460.744263,119.819374 
M474.159668,264.639709 
	C474.571960,261.904877 473.585297,260.849731 470.653687,260.937103 
	C463.829681,261.140472 456.988342,261.186768 450.168518,260.922607 
	C446.786346,260.791595 444.833771,261.854248 443.023285,264.787506 
	C429.998657,285.889282 416.771149,306.865784 403.620789,327.890015 
	C402.684021,329.387665 401.849792,330.949463 400.767120,332.830139 
	C425.482239,332.830139 449.659485,332.830139 474.160034,332.830139 
	C474.160034,310.205170 474.160034,287.908630 474.159668,264.639709 
M138.473663,145.035370 
	C128.849701,123.305595 119.230247,101.573837 109.599960,79.846870 
	C104.598656,68.563408 104.590271,68.564964 92.145241,67.143753 
	C91.840431,67.108948 91.512901,67.273155 90.673767,67.462173 
	C87.144714,93.424934 83.591743,119.563614 79.961426,146.271317 
	C100.835396,149.254791 121.428253,152.198090 142.826324,155.256485 
	C141.245255,151.488129 140.035583,148.604996 138.473663,145.035370 
M93.503426,261.998657 
	C88.414085,261.998657 83.324753,261.998657 78.391739,261.998657 
	C78.391739,286.045135 78.391739,309.438324 78.391739,333.161652 
	C81.754669,333.161652 84.751419,333.353760 87.701759,333.067535 
	C88.890518,332.952240 90.412468,332.064362 91.046982,331.062225 
	C104.573555,309.698578 117.996353,288.269226 131.435242,266.850067 
	C132.341019,265.406464 133.214172,263.942352 134.401230,261.998657 
	C120.465248,261.998657 107.483574,261.998657 93.503426,261.998657 
z"/>
<path fill="#384946" opacity="1.000000" stroke="none" 
	d="
M1055.267578,378.759338 
	C1056.087891,346.691864 1056.761597,315.080933 1057.969238,283.490448 
	C1058.941284,258.059265 1060.523560,232.650879 1061.912354,207.236603 
	C1062.286499,200.388092 1063.663452,199.146896 1070.453369,199.186676 
	C1075.943970,199.218842 1081.438599,199.352631 1086.921875,199.629684 
	C1091.413940,199.856659 1094.215576,202.426056 1094.249023,206.887695 
	C1094.308838,214.847717 1094.096313,222.823730 1093.624634,230.770935 
	C1092.599365,248.044510 1091.428345,265.310944 1090.112671,282.564728 
	C1089.777710,286.957611 1091.003296,288.971100 1095.684204,288.866425 
	C1104.482788,288.669617 1113.289062,288.809692 1123.467041,288.809692 
	C1123.467041,282.702026 1123.466797,276.610107 1123.467163,270.518188 
	C1123.468140,249.874191 1123.483765,229.230164 1123.463013,208.586182 
	C1123.455078,200.607300 1125.140869,198.742569 1132.961182,198.874222 
	C1137.447510,198.949753 1141.924683,199.462601 1146.411133,199.662003 
	C1151.692139,199.896698 1153.805176,203.084747 1153.798218,207.837891 
	C1153.777588,221.993454 1153.505615,236.148544 1153.463745,250.304199 
	C1153.401245,271.446167 1153.671875,292.591370 1153.394287,313.729889 
	C1153.086182,337.195374 1152.509399,360.661743 1151.645386,384.112854 
	C1151.374268,391.473816 1149.703369,392.506927 1142.430542,393.153503 
	C1139.448364,393.418610 1136.459961,393.804901 1133.474487,393.803650 
	C1125.294067,393.800232 1122.251587,390.852295 1122.185059,382.692261 
	C1122.047729,365.866028 1122.061646,349.038544 1121.993530,332.211670 
	C1121.971191,326.715118 1121.923584,321.218109 1121.807373,315.722992 
	C1121.776855,314.279999 1121.447876,312.843323 1121.254395,311.393005 
	C1110.720215,311.393005 1100.612915,311.393005 1089.840698,311.393005 
	C1089.840698,315.888428 1089.892944,320.171692 1089.831665,324.453339 
	C1089.581421,341.934052 1089.672363,359.430573 1088.913330,376.889832 
	C1088.226685,392.681793 1084.185303,395.583496 1068.406372,393.500793 
	C1067.416504,393.370117 1066.424438,393.256165 1065.433228,393.136597 
	C1057.875000,392.224762 1056.011108,390.278442 1055.488892,382.716888 
	C1055.408569,381.555176 1055.395508,380.388885 1055.267578,378.759338 
z"/>
<path fill="#384946" opacity="1.000000" stroke="none" 
	d="
M803.370361,232.207947 
	C803.995056,221.935669 804.483765,212.132736 805.164551,202.343170 
	C805.610535,195.928925 807.627258,193.816772 813.959961,194.242035 
	C828.391907,195.211212 842.877014,196.009949 857.190308,197.973038 
	C875.773865,200.521835 890.596497,215.669205 893.775452,234.108582 
	C897.723389,257.008545 898.993164,280.217926 897.632996,303.271362 
	C896.422119,323.794128 892.710754,344.206696 889.430115,364.559479 
	C886.128601,385.042328 877.690491,392.910675 856.708862,394.031250 
	C842.996338,394.763580 829.127747,394.011993 815.419434,392.855011 
	C807.017944,392.145905 805.128601,389.168884 805.016113,380.484894 
	C804.378296,331.218506 803.869019,281.950470 803.370361,232.207947 
M866.497864,312.947327 
	C866.166382,297.312256 866.377991,281.639313 865.292297,266.056793 
	C864.676697,257.221497 862.701538,248.285019 859.957764,239.842896 
	C856.425903,228.975693 844.929871,223.907059 835.027710,227.849243 
	C830.176941,275.316406 828.123535,322.940765 831.289734,370.616608 
	C846.538574,372.321899 860.312134,362.792603 862.912109,348.103821 
	C864.905823,336.839996 865.343933,325.300842 866.497864,312.947327 
z"/>
<path fill="#384946" opacity="1.000000" stroke="none" 
	d="
M641.704834,286.267395 
	C645.421692,302.480591 649.042786,318.279327 652.663879,334.078094 
	C653.371643,334.120148 654.079468,334.162170 654.787231,334.204224 
	C657.177368,324.269409 660.247620,314.441742 661.832153,304.380066 
	C666.929077,272.016083 671.444092,239.560745 676.283508,207.155594 
	C676.840454,203.425812 678.027100,199.790085 678.726868,196.912567 
	C688.364563,196.912567 697.336853,196.767029 706.301208,196.970245 
	C711.229736,197.081970 712.594788,199.171295 711.771118,205.344009 
	C710.209778,217.045349 708.623047,228.751389 706.650208,240.388214 
	C700.537048,276.448151 694.326416,312.492126 687.966064,348.509216 
	C685.451599,362.748291 682.441467,376.899780 679.661194,391.091949 
	C678.935547,394.796356 677.046448,397.131378 672.932922,397.013214 
	C661.630188,396.688568 650.327698,396.338379 639.022705,396.123016 
	C636.255188,396.070282 634.908569,394.999725 634.204651,392.279816 
	C623.041992,349.150085 612.214111,305.927521 605.450745,261.855408 
	C602.780029,244.451889 601.696045,226.793686 600.247437,209.221954 
	C599.904419,205.060928 601.002686,200.781082 601.464966,196.293533 
	C610.378845,197.350067 618.465332,198.158615 626.484436,199.402206 
	C627.868652,199.616882 629.876587,201.558258 630.053345,202.904648 
	C631.524597,214.109604 632.343628,225.402969 633.920837,236.590546 
	C636.240662,253.045609 639.023438,269.435394 641.704834,286.267395 
z"/>
<path fill="#384946" opacity="1.000000" stroke="none" 
	d="
M984.859009,194.932663 
	C989.311646,196.510117 993.355896,198.015259 997.400085,199.520432 
	C1007.819275,203.398376 1013.470520,212.091095 1017.208984,221.512222 
	C1021.088135,231.287552 1023.525635,241.722351 1025.694580,252.057404 
	C1027.079102,258.654877 1022.955139,262.774750 1016.240906,262.258728 
	C1010.473694,261.815491 1004.782532,260.415253 999.048523,259.495697 
	C995.559448,258.936157 994.166321,257.056091 993.974365,253.445389 
	C993.647949,247.305969 992.771423,241.194687 992.089905,235.075607 
	C991.585571,230.546982 989.439697,227.321121 984.886780,225.898621 
	C980.122437,224.410095 975.785522,224.530991 971.902954,228.219498 
	C965.275513,234.515762 963.656921,242.901794 962.364380,251.288315 
	C957.495911,282.877441 957.050964,314.571564 961.046021,346.279816 
	C961.552429,350.299469 963.261353,354.246063 964.882568,358.025116 
	C966.580933,361.984192 969.324524,365.331940 974.117737,365.327087 
	C978.965149,365.322174 981.832520,361.878235 983.108826,357.844879 
	C985.747864,349.505188 988.404053,341.067200 989.799988,332.466248 
	C991.272644,323.392395 991.532654,322.337555 1000.715332,322.026917 
	C1005.537415,321.863831 1010.369690,322.022003 1015.197144,321.992157 
	C1019.069153,321.968231 1021.415283,323.838531 1021.088074,327.710876 
	C1020.153198,338.772125 1019.934937,350.028687 1017.585571,360.805206 
	C1013.706116,378.600037 1001.075500,388.613831 984.175964,393.797516 
	C963.953430,400.000549 946.353760,391.407959 939.020020,371.396301 
	C934.132202,358.058868 931.171814,344.306824 930.578369,330.009521 
	C929.668152,308.079926 927.643677,286.175323 927.422363,264.246674 
	C927.297363,251.864120 929.079102,239.315613 931.333069,227.087204 
	C935.630981,203.769501 960.593506,188.996552 984.859009,194.932663 
z"/>
<path fill="#384946" opacity="1.000000" stroke="none" 
	d="
M1247.152344,330.002350 
	C1247.438354,290.688141 1247.712646,251.874054 1248.013916,213.060165 
	C1248.033325,210.565536 1248.155029,208.061554 1248.411743,205.580780 
	C1249.225952,197.708939 1250.498657,196.100479 1256.473389,195.066101 
	C1264.465576,193.682434 1270.629272,195.911835 1273.189941,201.703049 
	C1274.353516,204.334427 1274.947998,207.450577 1274.923340,210.339294 
	C1274.545288,254.478882 1274.007446,298.617065 1273.545288,342.755951 
	C1273.456421,351.235657 1273.532471,359.717072 1273.532471,368.998840 
	C1275.916138,368.998840 1277.488770,368.991730 1279.061401,369.000000 
	C1289.392456,369.054230 1299.728638,368.933289 1310.053101,369.225952 
	C1317.993652,369.451050 1320.579834,371.924957 1320.955688,378.593719 
	C1321.485962,388.000763 1319.010498,392.425659 1311.314453,393.219177 
	C1292.232544,395.186554 1273.088501,395.703918 1254.120850,392.043671 
	C1246.182129,390.511627 1244.765381,388.533295 1245.043457,380.397614 
	C1245.612061,363.761383 1246.430908,347.133698 1247.152344,330.002350 
z"/>
<path fill="#384946" opacity="1.000000" stroke="none" 
	d="
M1414.382568,393.672028 
	C1397.505859,393.524628 1381.063965,393.348877 1364.624756,393.035248 
	C1362.329346,392.991486 1360.003906,392.430756 1357.766724,391.831543 
	C1351.562744,390.169769 1349.883545,388.039490 1350.022583,381.522339 
	C1350.796265,345.259369 1351.738892,308.999817 1352.430542,272.735382 
	C1352.814575,252.597626 1352.819702,232.452667 1353.007202,212.311066 
	C1353.022705,210.647034 1353.080078,208.980591 1353.196411,207.320770 
	C1353.931763,196.820816 1356.495483,194.456635 1366.689331,194.833160 
	C1375.014282,195.140625 1380.055786,200.345825 1379.972412,209.051910 
	C1379.544556,253.655807 1379.007568,298.258636 1378.545044,342.862213 
	C1378.457275,351.329102 1378.532471,359.797699 1378.532471,368.998871 
	C1382.971313,368.998871 1386.557007,368.940063 1390.140137,369.010284 
	C1399.617554,369.195923 1409.099976,369.298645 1418.567993,369.715088 
	C1423.335327,369.924774 1425.442749,373.067596 1425.901123,377.643402 
	C1426.919434,387.809845 1424.193237,391.805420 1414.382568,393.672028 
z"/>
<path fill="#384946" opacity="1.000000" stroke="none" 
	d="
M773.531677,360.158325 
	C773.642273,365.962646 773.898682,371.286102 773.832214,376.605499 
	C773.707825,386.546875 767.606262,392.361877 757.745728,392.162659 
	C757.080811,392.149261 756.406677,392.160614 755.753662,392.055695 
	C740.113586,389.543060 740.872986,388.979736 740.847168,375.897186 
	C740.798340,351.089355 740.751770,326.281006 740.853821,301.473511 
	C740.978638,271.120239 741.219360,240.767242 741.496826,210.414932 
	C741.562622,203.214111 742.631531,202.086044 749.681274,201.121872 
	C753.957336,200.537048 758.270081,200.193680 762.575500,199.859009 
	C766.624390,199.544296 768.926758,201.521103 769.165833,205.568954 
	C769.675354,214.196594 770.265564,222.825989 770.483154,231.463226 
	C771.560059,274.199188 772.526367,316.937897 773.531677,360.158325 
z"/>
<path fill="#384946" opacity="1.000000" stroke="none" 
	d="
M1214.840088,328.015625 
	C1215.173340,343.975464 1215.628662,359.436096 1215.802612,374.899933 
	C1215.948486,387.869598 1208.186035,394.189850 1195.475586,391.792328 
	C1183.277954,389.491608 1182.837524,388.971802 1182.834717,376.609039 
	C1182.829224,351.803864 1182.752197,326.998322 1182.853760,302.193573 
	C1182.978882,271.675079 1183.209839,241.156769 1183.500854,210.639389 
	C1183.572876,203.088211 1184.597412,202.069229 1191.952148,201.086166 
	C1196.065674,200.536316 1200.210083,200.200256 1204.347656,199.852188 
	C1208.653076,199.490005 1210.985840,201.609299 1211.220703,205.850433 
	C1211.717041,214.812180 1212.261597,223.775864 1212.501465,232.746368 
	C1213.346191,264.335114 1214.070312,295.927063 1214.840088,328.015625 
z"/>
<path fill="#FFFFFF" opacity="1.000000" stroke="none" 
	d="
M256.000000,487.024902 
	C196.863068,487.025635 138.226135,487.025635 78.884537,487.025635 
	C78.884537,443.045502 78.884537,398.947052 78.884537,354.424133 
	C210.037506,354.424133 341.724121,354.424133 473.785034,354.424133 
	C473.785034,398.088257 473.785034,441.950745 473.785034,487.024139 
	C401.322754,487.024139 328.911377,487.024139 256.000000,487.024902 
z"/>
<path fill="#FDFEFE" opacity="1.000000" stroke="none" 
	d="
M240.106033,123.865646 
	C234.536316,111.216614 229.108200,98.919250 223.337997,85.846893 
	C232.287460,87.049370 240.458359,88.093361 248.612457,89.255035 
	C261.954651,91.155853 275.301910,93.034569 288.604340,95.186409 
	C290.563995,95.503395 293.255737,96.830421 293.979492,98.428177 
	C306.457764,125.974045 318.680237,153.635788 331.296936,182.033432 
	C307.251343,178.672180 283.835205,175.398911 261.508698,172.277954 
	C254.206451,155.771179 247.227051,139.994247 240.106033,123.865646 
z"/>
<path fill="#FDFEFE" opacity="1.000000" stroke="none" 
	d="
M235.828094,168.164612 
	C216.890121,165.597519 197.951172,163.037552 179.014908,160.457901 
	C174.726395,159.873703 170.447174,159.221207 167.237442,158.755829 
	C154.596985,129.965363 142.199249,101.727730 129.443451,72.674522 
	C136.419006,73.548386 142.629868,74.246864 148.816574,75.117111 
	C164.467758,77.318665 180.118912,79.527657 195.736328,81.951248 
	C197.327728,82.198204 199.423538,83.593987 200.050659,85.005272 
	C212.197708,112.341537 224.160614,139.759628 236.061249,167.599518 
	C235.961105,168.038132 235.828094,168.164612 235.828094,168.164612 
z"/>
<path fill="#FDFEFE" opacity="1.000000" stroke="none" 
	d="
M379.822571,189.090851 
	C371.162598,187.887451 362.942108,186.736023 355.589020,185.706070 
	C342.912872,156.886917 330.494019,128.652740 317.655884,99.465294 
	C324.965485,100.401573 331.577667,101.160950 338.162598,102.109596 
	C353.458191,104.313126 368.750153,106.547630 384.013031,108.962616 
	C385.480560,109.194832 387.404144,110.478790 387.988281,111.780563 
	C400.221802,139.042938 412.293427,166.377975 424.384644,193.704132 
	C424.509949,193.987320 424.471710,194.342911 424.598907,195.417023 
	C409.691528,193.307449 394.976807,191.225143 379.822571,189.090851 
z"/>
<path fill="#FCFEFE" opacity="1.000000" stroke="none" 
	d="
M318.705902,261.444092 
	C320.985291,261.444244 322.810913,261.444244 325.262268,261.444244 
	C324.312439,263.119049 323.587280,264.525116 322.747711,265.859192 
	C309.097443,287.549957 295.451324,309.243439 281.713684,330.878784 
	C281.057404,331.912323 279.566498,333.061005 278.458130,333.067291 
	C255.998108,333.194763 233.537155,333.162842 210.376648,333.162842 
	C211.158096,331.524658 211.584167,330.349426 212.232666,329.313477 
	C225.740952,307.734680 239.322098,286.201202 252.738464,264.565521 
	C254.291824,262.060547 256.035614,261.378143 258.798431,261.391754 
	C278.615967,261.489502 298.434143,261.443970 318.705902,261.444092 
z"/>
<path fill="#FDFEFE" opacity="1.000000" stroke="none" 
	d="
M327.000153,333.163330 
	C319.728699,333.163361 312.957214,333.163361 305.466034,333.163361 
	C306.504395,331.237152 307.111481,329.938812 307.867493,328.733887 
	C321.229187,307.438080 334.661560,286.186249 347.919586,264.826172 
	C349.611267,262.100769 351.348053,261.045044 354.621826,261.072906 
	C375.117126,261.247406 395.614624,261.161072 416.111420,261.161072 
	C417.386810,261.161072 418.662201,261.161072 420.660461,261.161072 
	C419.122742,263.686737 417.962402,265.641174 416.755890,267.566620 
	C403.493225,288.732849 390.267578,309.922791 376.844055,330.986603 
	C376.048218,332.235413 373.653595,333.052948 371.992218,333.070740 
	C357.162872,333.229553 342.331146,333.163300 327.000153,333.163330 
z"/>
<path fill="#FEFEFF" opacity="1.000000" stroke="none" 
	d="
M180.744431,333.161011 
	C158.687698,333.161041 137.100723,333.161041 114.643799,333.161041 
	C117.877747,328.006165 120.662994,323.547363 123.466949,319.100372 
	C134.735947,301.228271 145.965591,283.330902 157.362686,265.540833 
	C158.353607,263.994080 160.450546,262.168427 162.053055,262.149963 
	C184.029510,261.896637 206.009369,261.937073 227.988403,261.924530 
	C228.262039,261.924377 228.535797,262.175079 229.147186,262.473541 
	C228.561249,263.611572 228.062973,264.781067 227.396088,265.844849 
	C213.696350,287.697968 200.021317,309.567108 186.142517,331.306091 
	C185.386383,332.490448 182.896851,332.568146 180.744431,333.161011 
z"/>
<path fill="#FDFEFE" opacity="1.000000" stroke="none" 
	d="
M461.182770,119.878151 
	C468.654114,120.950218 475.686981,121.963509 483.035065,123.022217 
	C479.183777,149.524872 475.395416,175.594498 471.517670,202.279373 
	C464.144653,201.208252 457.124084,200.220093 450.121399,199.118057 
	C449.475616,199.016434 448.670746,198.308228 448.398621,197.682175 
	C436.288116,169.823395 424.228943,141.942291 412.173126,114.059723 
	C412.114990,113.925270 412.192627,113.732079 412.269409,112.835106 
	C428.449646,115.166359 444.596954,117.492867 461.182770,119.878151 
z"/>
<path fill="#FEFFFF" opacity="1.000000" stroke="none" 
	d="
M474.159851,265.125885 
	C474.160034,287.908630 474.160034,310.205170 474.160034,332.830139 
	C449.659485,332.830139 425.482239,332.830139 400.767120,332.830139 
	C401.849792,330.949463 402.684021,329.387665 403.620789,327.890015 
	C416.771149,306.865784 429.998657,285.889282 443.023285,264.787506 
	C444.833771,261.854248 446.786346,260.791595 450.168518,260.922607 
	C456.988342,261.186768 463.829681,261.140472 470.653687,260.937103 
	C473.585297,260.849731 474.571960,261.904877 474.159851,265.125885 
z"/>
<path fill="#FDFEFE" opacity="1.000000" stroke="none" 
	d="
M138.649780,145.378616 
	C140.035583,148.604996 141.245255,151.488129 142.826324,155.256485 
	C121.428253,152.198090 100.835396,149.254791 79.961426,146.271317 
	C83.591743,119.563614 87.144714,93.424934 90.673767,67.462173 
	C91.512901,67.273155 91.840431,67.108948 92.145241,67.143753 
	C104.590271,68.564964 104.598656,68.563408 109.599960,79.846870 
	C119.230247,101.573837 128.849701,123.305595 138.649780,145.378616 
z"/>
<path fill="#FDFEFE" opacity="1.000000" stroke="none" 
	d="
M94.002655,261.998657 
	C107.483574,261.998657 120.465248,261.998657 134.401230,261.998657 
	C133.214172,263.942352 132.341019,265.406464 131.435242,266.850067 
	C117.996353,288.269226 104.573555,309.698578 91.046982,331.062225 
	C90.412468,332.064362 88.890518,332.952240 87.701759,333.067535 
	C84.751419,333.353760 81.754669,333.161652 78.391739,333.161652 
	C78.391739,309.438324 78.391739,286.045135 78.391739,261.998657 
	C83.324753,261.998657 88.414085,261.998657 94.002655,261.998657 
z"/>
<path fill="#FDFEFE" opacity="1.000000" stroke="none" 
	d="
M236.027069,167.974304 
	C236.285019,168.070312 236.477020,168.230148 236.669022,168.389969 
	C236.427750,168.450821 236.186493,168.511673 235.886658,168.368561 
	C235.828094,168.164612 235.961105,168.038132 236.027069,167.974304 
z"/>
<path fill="#FEFEFE" opacity="1.000000" stroke="none" 
	d="
M866.485840,313.415710 
	C865.343933,325.300842 864.905823,336.839996 862.912109,348.103821 
	C860.312134,362.792603 846.538574,372.321899 831.289734,370.616608 
	C828.123535,322.940765 830.176941,275.316406 835.027710,227.849243 
	C844.929871,223.907059 856.425903,228.975693 859.957764,239.842896 
	C862.701538,248.285019 864.676697,257.221497 865.292297,266.056793 
	C866.377991,281.639313 866.166382,297.312256 866.485840,313.415710 
z"/>
</svg>